<svg width="17" height="12" viewBox="0 0 17 12" fill="none" xmlns="http://www.w3.org/2000/svg">
<path d="M0.5 1C0.5 0.447715 0.947715 0 1.5 0H15.5C16.0523 0 16.5 0.447715 16.5 1C16.5 1.55228 16.0523 2 15.5 2H1.5C0.947715 2 0.5 1.55228 0.5 1ZM0.5 6C0.5 5.44772 0.947715 5 1.5 5H15.5C16.0523 5 16.5 5.44772 16.5 6C16.5 6.55228 16.0523 7 15.5 7H1.5C0.947715 7 0.5 6.55228 0.5 6ZM0.5 11C0.5 10.4477 0.947715 10 1.5 10H15.5C16.0523 10 16.5 10.4477 16.5 11C16.5 11.5523 16.0523 12 15.5 12H1.5C0.947715 12 0.5 11.5523 0.5 11Z" fill="#565656"/>
</svg>
