<svg width="24" height="24" viewBox="0 0 24 24" fill="none" xmlns="http://www.w3.org/2000/svg">
<path d="M10.8719 4.96798C7.61126 4.96798 4.96798 7.61126 4.96798 10.8719C4.96798 14.1326 7.61126 16.7758 10.8719 16.7758C14.1326 16.7758 16.7758 14.1326 16.7758 10.8719C16.7758 7.61126 14.1326 4.96798 10.8719 4.96798ZM3 10.8719C3 6.52437 6.52437 3 10.8719 3C15.2194 3 18.7438 6.52437 18.7438 10.8719C18.7438 12.691 18.1268 14.366 17.0906 15.699L20.7118 19.2358C21.0961 19.6201 21.0961 20.3275 20.7118 20.7118C20.3275 21.0961 19.6201 21.0961 19.2358 20.7118L15.699 17.0906C14.366 18.1268 12.691 18.7438 10.8719 18.7438C6.52437 18.7438 3 15.2194 3 10.8719Z" fill="#565656"/>
</svg>
