<svg width="32" height="32" viewBox="0 0 32 32" fill="none" xmlns="http://www.w3.org/2000/svg">
<path d="M30.0007 7.58268C28.912 9.14125 27.5538 10.4929 25.9899 11.5739L25.9899 11.5739C25.891 14.3077 25.093 16.9706 23.672 19.3083C22.2511 21.6459 20.2547 23.5804 17.8734 24.9269C15.4921 26.2735 12.8054 26.9872 10.0698 27C7.3342 27.0127 4.64098 26.324 2.24725 24.9997L2.24807 24.9982C5.37387 24.9549 8.41777 23.9924 11.0002 22.2307L11.0001 22.2308C8.23571 20.3467 6.13028 17.6447 4.97896 14.5037C3.82764 11.3627 3.68817 7.94011 4.58008 4.71582L4.58004 4.71585C5.85749 6.68317 7.55194 8.34551 9.54334 9.5851C11.5347 10.8247 13.7744 11.6112 16.1036 11.8889L16.1032 11.889C15.8579 10.7197 16.0393 9.50132 16.6145 8.45423C17.1898 7.40714 18.1208 6.60056 19.2392 6.18046C20.3576 5.76037 21.5895 5.75452 22.7118 6.16397C23.8341 6.57341 24.7728 7.37111 25.358 8.41269L25.358 8.41324C26.938 8.36609 28.5024 8.08623 30.0007 7.58268" stroke="black" stroke-width="2" stroke-linecap="round" stroke-linejoin="round"/>
</svg>
